<svg width="474" height="187" viewBox="0 0 474 187" fill="none" xmlns="http://www.w3.org/2000/svg">
<path d="M472.295 -377.975L472.293 -378.369C472.05 -412.964 449.069 -447.513 403.348 -473.908C311.419 -526.978 162.374 -526.978 70.4452 -473.908C24.7248 -447.513 1.74367 -412.964 1.50076 -378.369L472.295 -377.975ZM472.295 -377.975L472.295 50.2833L472.295 50.4336L472.295 52.4754L472.27 52.4754L472.245 53.1682C471.041 87.0053 448.076 120.63 403.349 146.451C311.42 199.521 162.375 199.521 70.4461 146.451C25.7193 120.63 2.75418 87.0053 1.54965 53.1683L1.52499 52.4758L1.49963 52.4757L1.49965 50.3759L1.49963 50.3757L1.49961 50.341L1.49962 50.3408L1.49965 -377.451L1.49962 -377.453C1.49853 -377.694 1.49851 -377.936 1.49964 -378.177M472.295 -377.975L1.49964 -378.177M1.49964 -378.177L1.49963 -378.178L1.50073 -378.369L1.49964 -378.177Z" fill="white" stroke="#353535" stroke-width="2"/>
</svg>
