<svg width="24" height="24" viewBox="0 0 24 24" fill="none" xmlns="http://www.w3.org/2000/svg">
<path d="M24 12C24 18.6274 18.6274 24 12 24C5.37258 24 0 18.6274 0 12C0 5.37258 5.37258 0 12 0C18.6274 0 24 5.37258 24 12Z" fill="#353535"/>
<path fill-rule="evenodd" clip-rule="evenodd" d="M18.6442 7.23511C19.0666 7.59086 19.1207 8.22171 18.7649 8.64416L11.186 17.6442C10.996 17.8698 10.7161 18 10.4211 18C10.1261 18 9.84617 17.8698 9.65616 17.6442L5.23511 12.3942C4.87936 11.9717 4.93344 11.3409 5.35589 10.9851C5.77834 10.6294 6.40919 10.6834 6.76493 11.1059L10.4211 15.4476L17.2351 7.35589C17.5909 6.93344 18.2217 6.87936 18.6442 7.23511Z" fill="white"/>
</svg>
