<svg width="33" height="30" viewBox="0 0 33 30" fill="none" xmlns="http://www.w3.org/2000/svg">
<path fill-rule="evenodd" clip-rule="evenodd" d="M7.1725 0.989605L16.4311 0.00195312L25.6897 0.989605L32.8577 10.6987L16.4311 29.9998L0.00454712 10.6987L7.1725 0.989605Z" fill="#FDB300"/>
<path fill-rule="evenodd" clip-rule="evenodd" d="M6.65447 10.6973L16.4277 29.9988L0.000701904 10.6973H6.65447Z" fill="#EA6C00"/>
<path fill-rule="evenodd" clip-rule="evenodd" d="M26.1959 10.6968L16.4227 29.9984L32.8496 10.6968H26.1959Z" fill="#EA6C00"/>
<path fill-rule="evenodd" clip-rule="evenodd" d="M6.65076 10.6968H26.1972L16.424 29.9984L6.65076 10.6968Z" fill="#FDAD00"/>
<path fill-rule="evenodd" clip-rule="evenodd" d="M16.4268 0L7.16801 0.987664L6.65366 10.697L16.4268 0Z" fill="#FDD231"/>
<path fill-rule="evenodd" clip-rule="evenodd" d="M16.4278 0L25.6866 0.987664L26.201 10.697L16.4278 0Z" fill="#FDD231"/>
<path fill-rule="evenodd" clip-rule="evenodd" d="M32.8542 10.6972L25.6861 0.987793L26.2005 10.6972H32.8542Z" fill="#FDAD00"/>
<path fill-rule="evenodd" clip-rule="evenodd" d="M0 10.6967L7.16808 0.987305L6.65373 10.6967H0Z" fill="#FDAD00"/>
<path fill-rule="evenodd" clip-rule="evenodd" d="M16.427 0L6.65366 10.697H26.2003L16.427 0Z" fill="#FEEEB7"/>
</svg>
