<svg width="18" height="18" viewBox="0 0 18 18" fill="none" xmlns="http://www.w3.org/2000/svg">
<path d="M16.5 -0.000244141H1.5C1.10231 0.000210676 0.721048 0.158392 0.439842 0.439598C0.158636 0.720804 0.000454817 1.10207 0 1.49976V16.4998C0.000454817 16.8974 0.158636 17.2787 0.439842 17.5599C0.721048 17.8411 1.10231 17.9993 1.5 17.9998H16.5C16.8977 17.9993 17.279 17.8411 17.5602 17.5599C17.8414 17.2787 17.9995 16.8974 18 16.4998V1.49976C17.9995 1.10207 17.8414 0.720804 17.5602 0.439598C17.279 0.158392 16.8977 0.000210676 16.5 -0.000244141ZM4.5 16.4998H1.5V1.49976H4.5V16.4998ZM13.5 11.2498H7.5C7.30109 11.2498 7.11032 11.1707 6.96967 11.0301C6.82902 10.8894 6.75 10.6987 6.75 10.4998C6.75 10.3008 6.82902 10.1101 6.96967 9.96943C7.11032 9.82877 7.30109 9.74976 7.5 9.74976H13.5C13.6989 9.74976 13.8897 9.82877 14.0303 9.96943C14.171 10.1101 14.25 10.3008 14.25 10.4998C14.25 10.6987 14.171 10.8894 14.0303 11.0301C13.8897 11.1707 13.6989 11.2498 13.5 11.2498ZM13.5 8.24976H7.5C7.30109 8.24976 7.11032 8.17074 6.96967 8.03009C6.82902 7.88943 6.75 7.69867 6.75 7.49976C6.75 7.30084 6.82902 7.11008 6.96967 6.96943C7.11032 6.82877 7.30109 6.74976 7.5 6.74976H13.5C13.6989 6.74976 13.8897 6.82877 14.0303 6.96943C14.171 7.11008 14.25 7.30084 14.25 7.49976C14.25 7.69867 14.171 7.88943 14.0303 8.03009C13.8897 8.17074 13.6989 8.24976 13.5 8.24976Z" fill="#353535"/>
</svg>
